<svg xmlns="http://www.w3.org/2000/svg" width="47.622" height="35.549" viewBox="0 0 47.622 35.549"><g id="Layer_2" data-name="Layer 2" transform="translate(-2.986 -10.34)"><path id="Path_3753" data-name="Path 3753" d="M50.608,44.36a.821.821,0,0,1-.806.837,12.678,12.678,0,0,1-4.889-.777,10.822,10.822,0,0,0-4.335-.692,11,11,0,0,0-4.306.854,12.532,12.532,0,0,1-4.857.96,12.618,12.618,0,0,1-4.885-.777,10.821,10.821,0,0,0-4.333-.691,10.981,10.981,0,0,0-4.3.854,12.506,12.506,0,0,1-4.854.96h-.362a12.355,12.355,0,0,1-4.524-.78,10.808,10.808,0,0,0-4.332-.691.821.821,0,0,1-.03-1.641,12.731,12.731,0,0,1,4.885.777,10.817,10.817,0,0,0,4.332.691,10.989,10.989,0,0,0,4.3-.854,12.514,12.514,0,0,1,4.854-.96,12.72,12.72,0,0,1,4.886.777,10.853,10.853,0,0,0,4.332.691,10.977,10.977,0,0,0,4.306-.854,12.548,12.548,0,0,1,4.857-.96,12.711,12.711,0,0,1,4.888.777,10.871,10.871,0,0,0,4.34.7.831.831,0,0,1,.832.8ZM4.65,40.853,3.009,31.825a.821.821,0,0,1,.809-.968h.016a.785.785,0,0,1-.006-.125L5.469,20.064a.821.821,0,0,1,1.514-.3l2.223,3.7h9.7l3.055-6.112a.821.821,0,0,1,.735-.454H30.08V14.444a.826.826,0,0,1-.3-.059l-4.1-1.641a.821.821,0,0,1,.17-1.572l4.924-.821a.821.821,0,0,1,.955.81v5.745h8.207a.821.821,0,0,1,.707.4L48.6,30.858h1.172a.821.821,0,0,1,.693,1.261l-5.745,9.027a.821.821,0,0,1-.693.38H5.46a.821.821,0,0,1-.807-.674ZM30.08,12.74v-.609L29,12.31ZM48.282,32.5H4.8l1.343,7.386H43.581ZM20.739,23.472H42.355l-2.9-4.924H23.2ZM5.973,27.583h38.8l-1.465-2.49a.791.791,0,0,1-.1.02H8.742a.821.821,0,0,1-.7-.4L6.746,22.56Zm-.5,3.274H46.7l-.968-1.641c-.021,0-.038.011-.059.011H5.721Zm7.787,4.1H10.794a.821.821,0,0,0,0,1.641h2.462a.821.821,0,0,0,0-1.641Zm4.924,0H15.718a.821.821,0,0,0,0,1.641H18.18a.821.821,0,1,0,0-1.641Zm4.924,0H20.642a.821.821,0,0,0,0,1.641H23.1a.821.821,0,0,0,0-1.641Zm4.924,0H25.566a.821.821,0,0,0,0,1.641h2.462a.821.821,0,0,0,0-1.641Zm4.924,0H30.49a.821.821,0,0,0,0,1.641h2.462a.821.821,0,0,0,0-1.641Zm4.924,0H35.414a.821.821,0,0,0,0,1.641h2.462a.821.821,0,0,0,0-1.641Zm4.924,0H40.338a.821.821,0,0,0,0,1.641H42.8a.821.821,0,0,0,0-1.641Z" fill="#7e7773"></path></g></svg>