<svg xmlns="http://www.w3.org/2000/svg" width="55.644" height="28.97" viewBox="0 0 55.644 28.97">
  <g id="Group_11605" data-name="Group 11605" transform="translate(0.532 0.5)">
    <g id="Group_11604" data-name="Group 11604" transform="translate(0 0)">
      <path id="Path_3678" data-name="Path 3678" d="M-833.936,4261.24s6.722-.026,7.732,0,2.488,2.607,2.488,2.607a46.328,46.328,0,0,1,6.064,0c5.582.138,7.787,1.885,7.721,2.02-1.881,2.107-7.721,2.634-7.721,2.634h-28.82l-16.81-4.491-.662-1.67-.6-9.634h2.868l3.422,6.057,9.392,2.476h6.884" transform="translate(864.542 -4252.707)" fill="none" stroke="#7e7773" stroke-linecap="round" stroke-width="1"/>
      <path id="Path_3679" data-name="Path 3679" d="M-725.023,4276.3l-12.822-7.943-5.2.534,9.637,7.409" transform="translate(757.502 -4266.494)" fill="none" stroke="#7e7773" stroke-linecap="round" stroke-width="1"/>
      <path id="Path_3680" data-name="Path 3680" d="M-416.822,4335.111v7.047" transform="translate(470.094 -4325.307)" fill="none" stroke="#7e7773" stroke-linecap="round" stroke-width="1"/>
      <path id="Path_3681" data-name="Path 3681" d="M-430.371,4351.886v2.93" transform="translate(482.03 -4340.085)" fill="none" stroke="#7e7773" stroke-linecap="round" stroke-width="1"/>
      <path id="Path_3682" data-name="Path 3682" d="M-786.939,4426.887c7.939-1.94,1.434-2.17,1.434-2.17h-45.928s1.5,2.17,5.544,2.17Z" transform="translate(835.373 -4404.25)" fill="none" stroke="#7e7773" stroke-linecap="round" stroke-width="1"/>
      <path id="Path_3683" data-name="Path 3683" d="M-672.493,4385.458l-3.543,4.663" transform="translate(698.465 -4369.663)" fill="none" stroke="#7e7773" stroke-linecap="round" stroke-width="1"/>
      <path id="Path_3684" data-name="Path 3684" d="M-676.036,4385.458l3.543,4.663" transform="translate(709.574 -4369.663)" fill="none" stroke="#7e7773" stroke-linecap="round" stroke-width="1"/>
      <path id="Path_3685" data-name="Path 3685" d="M-572.985,4324.489s-1.44,3.167.932,3.134,2.907.3,4.856-.534" transform="translate(608.057 -4315.949)" fill="none" stroke="#7e7773" stroke-linecap="round" stroke-width="1"/>
    </g>
    <path id="Path_3686" data-name="Path 3686" d="M72.968,183.588a4.815,4.815,0,0,0-3.518,1.533,3.615,3.615,0,0,1-5.431,0,4.8,4.8,0,0,0-7.036,0,3.614,3.614,0,0,1-5.43,0,4.8,4.8,0,0,0-7.035,0,3.613,3.613,0,0,1-5.43,0,4.8,4.8,0,0,0-7.035,0,3.612,3.612,0,0,1-5.429,0,4.814,4.814,0,0,0-3.518-1.534.605.605,0,0,0,0,1.21,3.658,3.658,0,0,1,2.714,1.229,4.8,4.8,0,0,0,7.035,0,3.613,3.613,0,0,1,5.429,0,4.8,4.8,0,0,0,7.035,0,3.614,3.614,0,0,1,5.43,0,4.8,4.8,0,0,0,7.035,0,3.614,3.614,0,0,1,5.431,0,4.8,4.8,0,0,0,7.037,0,3.662,3.662,0,0,1,2.716-1.229.605.605,0,1,0,0-1.21Z" transform="translate(-19.987 -159.09)" fill="#b6afa2"/>
  </g>
</svg>
