<svg id="Group_11949" data-name="Group 11949" xmlns="http://www.w3.org/2000/svg" xmlns:xlink="http://www.w3.org/1999/xlink" width="49.868" height="32.545" viewBox="0 0 49.868 32.545">
  <defs>
    <clipPath id="clip-path">
      <rect id="Rectangle_6139" data-name="Rectangle 6139" width="49.868" height="32.545" fill="none"/>
    </clipPath>
  </defs>
  <g id="Group_11948" data-name="Group 11948" clip-path="url(#clip-path)">
    <path id="Path_3733" data-name="Path 3733" d="M249.133,94.339s7.958.85,7.221-1.905" transform="translate(-211.485 -78.466)" fill="none" stroke="#7e7773" stroke-linecap="round" stroke-linejoin="round" stroke-width="1"/>
    <path id="Path_3734" data-name="Path 3734" d="M41.73,60.221l-11.248.755c-5.8.389-11.711.855-18.015,1.5L8.8,58.869H5L8.249,69.788l6.544.343,9.053.474L14.113,81.763h7.471L37.092,71.3l4.638.243c2.324.1,11.627-.175,11.627-2.5,0-2.477-4.288-5.172-4.288-5.172S48.048,60.047,41.73,60.221Z" transform="translate(-4.244 -49.973)" fill="none" stroke="#7e7773" stroke-linecap="round" stroke-linejoin="round" stroke-width="1"/>
    <path id="Path_3735" data-name="Path 3735" d="M114.914,28.536,102.567,21.1H96.676l4.992,8.044" transform="translate(-82.067 -17.913)" fill="none" stroke="#7e7773" stroke-linecap="round" stroke-linejoin="round" stroke-width="1"/>
    <line id="Line_8" data-name="Line 8" x1="1.652" transform="translate(18.554 15.874)" fill="none" stroke="#b6afa2" stroke-linecap="round" stroke-linejoin="round" stroke-width="1"/>
    <line id="Line_9" data-name="Line 9" x1="1.58" transform="translate(23.367 15.874)" fill="none" stroke="#b6afa2" stroke-linecap="round" stroke-linejoin="round" stroke-width="1"/>
    <line id="Line_10" data-name="Line 10" x1="1.581" transform="translate(28.107 15.874)" fill="none" stroke="#b6afa2" stroke-linecap="round" stroke-linejoin="round" stroke-width="1"/>
    <line id="Line_11" data-name="Line 11" x1="1.64" transform="translate(32.848 15.874)" fill="none" stroke="#b6afa2" stroke-linecap="round" stroke-linejoin="round" stroke-width="1"/>
  </g>
</svg>
