<svg xmlns="http://www.w3.org/2000/svg" width="130" height="232.011" viewBox="0 0 130 232.011">
  <g id="Group_11947" data-name="Group 11947" transform="translate(-202 -214.238)">
    <g id="Group_23" data-name="Group 23" transform="translate(202 239.418)">
      <path id="Path_20" data-name="Path 20" d="M2073.7,2031.988v-4.98h-4.607v3.113l-1.493.5.747,14.071h4.109v3.362h18.3s14.445-5.854,17.309-20.172h6.848v-3.487h5.728V2029l-2.365.747v8.592l1.743,2.366h5.1l2.243-2.989,4.357-8.84v-14.2l-4.108-4.732v-12.2l-1.744-4.234-3.236-6.475-.25-12.2-1.868-4.358-1.993-6.724-1.244-5.852-4.359-6.6-2.864-7.72v-7.222l-3.487-2.74-5.23-.872-5.353,2.367-7.1,3.984-2.367,1.495-3.361,1.992-3.611,5.106-20.173,27.644-4.731,1.369-2.615,2.116v8.966l-2.491,3.362-6.848,9.339-6.974,7.222-7.1,13.074-4.731,7.844-4.98,11.332-2.116,5.1-2.118,1.495-1.744,8.343-1.992,4.108-1.369,8.718v11.83l.872,7.1-.872,4.857-2.242,4.483-.746,3.112v8.095l-1.495,3.237-2.116,2.615-1.246,4.11,1.12,8.964,2.74,1.5,1.246-1.992,1.369-3.238,1-3.237,1.371-2.615,1.493-2.739,4.857-.249,11.954.622,5.728.872,8.343.125,3.984.126,6.85-.126,3.112-.373,3.984-.124,5.355.373,3.986,2.118,6.1,4.357,3.238,2.99,3.86,3.113,3.362,1.868.622,3.113-.124,3.363.249,1.868,4.234,1.744h13.573l2.116-1.992,2.491-2.864,1.245-3.736,1.992-.5,4.732-.5,2.366-1,.5-4.481,1.121-5.23,1.868-1.992.872-2.117-.5-3.361-2.365-2.615-3.362-1.619-3.487.748-4.233,1h-3.611l-2.99-1.495-1.369-2.241-2.491-1.992-1.744-2.491-1.493-5.852-3.114-2.864-2.615.373-1.618.748-1.371,1.12s-1.245.249-1.62.375-2.116.373-2.116.373h-3.362l-5.106-1.37-3.611-.5-2.491-1-3.237-1.868-2.116-1.37-2.367.125-1.868.374-1.37,1.868-2.864,1.245-3.611-1.369-4.357-.872-3.611-1.743-.5-2.491-1.245-1.619h-2.988s-1.122-.621-1.246-1.245-.373-3.113-.373-3.113v-2.615l-1.371-1.868-1.992-2.242-1.245-1.493-1.744-1.12-1.495-.25h-1.744l-3.61.124-2.739.126-1.994-.375-1.992-1-1.12-2.988.124-4.234.623-3.113,1.743-1.744,1.121-1.245,1-3.238v-3.86l1.245-2.242,1.495-.746,2.116-3.114,1.246-2.739,1.493-1.369,1.992-1.37a11.247,11.247,0,0,0,1-1.556c0-.187.125-1.556.125-1.556l-.374-6.475.5-1.744.747-1.369,1.121-1.246,1.619-1.369,1.493-1.246,1.371-1.744,1.618-1.992,1.494-1.245,2.367-.373,1.245-.374,1.245-2.116-.124-2.988v-3.736l.375-1.993,1.493-1.618,1.993-2.118,4.482-.5,2.491-.5.871-2.241.748-2.491.5-3.363,2.367-.373,5.976-.747,2.615.375,2.367-2.242.248-2.864-.124-2.988-.5-3.362-1.369-1.868-1.495-1.868-.249-2.365,3.611-4.733,2.241-3.113,1.246-1.868,1.868-2.241,2.116-1.867,1.744-2.367.249-2.615.375-2.365,1.618-1.87,1.743-1.742,2.243-1.619,1.868-.871,2.615-.249,1.245-.25,1.245-.622,1.12-1.122,1.868.25.623,1.992-.249,1.867-.374,2.988-.249,2.491.872,2.116,1.12,2.116-.5,1.744-1.619,1.495-.5,1.868.249,3.86,1.245,1.619.872,2.988-1.369,1.495-2.491.871-1.371,1.992-.249,2.988-.249,1.743-.249,1.868-.375,1.495-1,1.12-1.743,1.12-2.241,1.744-.747,2.366.249,3.113-.249,1.868-1,1.245-1.121,2.491-.25,2.491-.372,1.868-2.491,1.493-3.86-.124-1.245,1.495-.374,2.241-.125,1.993v1.369l-1.868,1.743-1.743.5-1.12,1.993.124,1.992,3.736,5.728.872,1.743,1.744,2.117.747,1.619s-.124,1.5-.124,1.868a5.961,5.961,0,0,1-.623,1.495l-1.868,1.12-2.366.748-.871-1.122Z" transform="translate(-2001.722 -1932.744)" fill="#b6afa2"/>
      <path id="Path_21" data-name="Path 21" d="M2044.275,1998.043l-1.369-2.365H2039.3l-2.242,1.182-.5,1.183v2.491l.872,2.864,1.493,1.432h1.5l1.37.685h1.868s1.369-.746,1.244-1.245a8.863,8.863,0,0,1,.008-1.867,10.568,10.568,0,0,1-.755-1.8,3.7,3.7,0,0,1,.248-.935Z" transform="translate(-1984.381 -1901.414)" fill="#b6afa2"/>
    </g>
    <g id="Group_24" data-name="Group 24" transform="translate(272 214.238)">
      <path id="Path_22" data-name="Path 22" d="M46.086,2.836a9.682,9.682,0,1,0-8.907,16.307L39.24,31.329,41.3,19.143A9.683,9.683,0,0,0,46.086,2.836ZM39.24,2.528a7.111,7.111,0,1,1-7.111,7.111A7.12,7.12,0,0,1,39.24,2.528Z" transform="translate(-29.558)" fill="#7e7773"/>
    </g>
  </g>
</svg>
