<svg xmlns="http://www.w3.org/2000/svg" width="19.921" height="19.921" viewBox="0 0 19.921 19.921">
  <g id="Group_30" data-name="Group 30" transform="translate(-936.339 -226.787)">
    <path id="Path_6" data-name="Path 6" d="M951.235,226.787h-9.871a5.033,5.033,0,0,0-5.026,5.026v9.868a5.031,5.031,0,0,0,5.026,5.026h9.871a5.03,5.03,0,0,0,5.024-5.026v-9.868A5.032,5.032,0,0,0,951.235,226.787Zm2.857,14.895a2.862,2.862,0,0,1-2.857,2.859h-9.87a2.861,2.861,0,0,1-2.857-2.859v-9.868a2.859,2.859,0,0,1,2.857-2.857h9.87a2.86,2.86,0,0,1,2.857,2.857Z" transform="translate(0)" fill="#b6afa2"/>
    <path id="Path_7" data-name="Path 7" d="M953.555,240.027a5.131,5.131,0,1,0,5.13,5.131A5.138,5.138,0,0,0,953.555,240.027Zm0,8.094a2.962,2.962,0,1,1,2.964-2.963A2.966,2.966,0,0,1,953.554,248.121Z" transform="translate(-7.255 -7.949)" fill="#b6afa2"/>
    <path id="Path_8" data-name="Path 8" d="M972.692,237.88a1.214,1.214,0,1,1,1.214-1.214,1.215,1.215,0,0,1-1.214,1.214Z" transform="translate(-21.096 -5.202)" fill="#b6afa2"/>
  </g>
</svg>
