<svg width="40" height="40" viewBox="0 0 40 40" fill="none" xmlns="http://www.w3.org/2000/svg">
<g clip-path="url(#clip0_6191_2846)">
<path d="M20 12.6191C22.4033 12.6191 22.6876 12.6284 23.6369 12.6716C24.5143 12.7116 24.9909 12.8581 25.3081 12.9814C25.6995 13.1255 26.0536 13.3556 26.3442 13.6548C26.6433 13.9454 26.8735 14.2994 27.0176 14.6908C27.1408 15.0081 27.2873 15.4847 27.3273 16.3621C27.3706 17.3113 27.3798 17.5957 27.3798 19.999C27.3798 22.4022 27.3706 22.6866 27.3273 23.6358C27.2873 24.5132 27.1408 24.9898 27.0176 25.3071C26.8677 25.6951 26.6383 26.0475 26.3442 26.3417C26.05 26.6358 25.6976 26.8652 25.3095 27.0151C24.9923 27.1384 24.5157 27.2848 23.6383 27.3248C22.6894 27.3681 22.4047 27.3774 20.0014 27.3774C17.5982 27.3774 17.3134 27.3681 16.3646 27.3248C15.4871 27.2848 15.0106 27.1384 14.6933 27.0151C14.3019 26.871 13.9479 26.6409 13.6573 26.3417C13.3581 26.0511 13.128 25.697 12.9838 25.3056C12.8606 24.9884 12.7141 24.5118 12.6741 23.6344C12.6309 22.6852 12.6216 22.4008 12.6216 19.9975C12.6216 17.5943 12.6309 17.3099 12.6741 16.3607C12.7141 15.4832 12.8606 15.0067 12.9838 14.6894C13.128 14.298 13.3581 13.944 13.6573 13.6534C13.9479 13.3542 14.3019 13.1241 14.6933 12.9799C15.0106 12.8567 15.4871 12.7102 16.3646 12.6702C17.3138 12.627 17.5982 12.6177 20.0014 12.6177L20 12.6191ZM20.0014 10.9961C17.5571 10.9961 17.2506 11.0065 16.2906 11.0504C15.3307 11.0943 14.6769 11.2476 14.1053 11.4698C13.5046 11.6959 12.9604 12.0502 12.5105 12.508C12.0527 12.9579 11.6984 13.5021 11.4723 14.1028C11.2501 14.6744 11.0979 15.3296 11.0543 16.2874C11.0107 17.2452 11 17.5532 11 19.9975C11 22.4419 11.0104 22.7484 11.0543 23.7083C11.0982 24.6683 11.2501 25.3206 11.4723 25.8923C11.6985 26.4927 12.0528 27.0367 12.5105 27.4863C12.9602 27.9444 13.5045 28.2988 14.1053 28.5249C14.6769 28.7474 15.3321 28.8996 16.2899 28.9432C17.2477 28.9868 17.5564 28.9975 20.0007 28.9975C22.4451 28.9975 22.7516 28.9872 23.7115 28.9432C24.6715 28.8993 25.3231 28.7474 25.8947 28.5249C26.4928 28.2938 27.036 27.9402 27.4893 27.4869C27.9427 27.0335 28.2963 26.4903 28.5273 25.8923C28.7499 25.3206 28.9021 24.6654 28.9457 23.7076C28.9893 22.7498 29 22.4412 29 19.9968C29 17.5525 28.9896 17.2459 28.9457 16.286C28.9017 15.326 28.7499 14.6744 28.5273 14.1028C28.3014 13.5023 27.9472 12.9583 27.4895 12.5087C27.0397 12.0507 26.4955 11.6961 25.8947 11.4698C25.3231 11.2476 24.6679 11.0954 23.7101 11.0518C22.7523 11.0082 22.4443 10.9975 20 10.9975L20.0014 10.9961Z" fill="#FEFDF9"/>
<path d="M20.0004 15.375C19.0863 15.375 18.1928 15.646 17.4328 16.1539C16.6728 16.6617 16.0805 17.3834 15.7307 18.2279C15.3809 19.0724 15.2894 20.0016 15.4677 20.8981C15.646 21.7945 16.0862 22.618 16.7325 23.2643C17.3788 23.9107 18.2023 24.3508 19.0988 24.5291C19.9952 24.7075 20.9245 24.6159 21.7689 24.2661C22.6134 23.9164 23.3352 23.324 23.843 22.564C24.3508 21.804 24.6218 20.9105 24.6218 19.9965C24.6219 19.3896 24.5024 18.7886 24.2702 18.2279C24.0379 17.6671 23.6975 17.1576 23.2684 16.7285C22.8392 16.2993 22.3297 15.9589 21.769 15.7267C21.2083 15.4945 20.6073 15.375 20.0004 15.375ZM20.0004 22.9974C19.4068 22.9974 18.8266 22.8214 18.3331 22.4917C17.8396 22.1619 17.455 21.6932 17.2279 21.1449C17.0007 20.5965 16.9413 19.9931 17.0571 19.411C17.1729 18.8289 17.4587 18.2942 17.8784 17.8745C18.2981 17.4548 18.8328 17.169 19.4149 17.0532C19.997 16.9374 20.6004 16.9968 21.1488 17.2239C21.6971 17.4511 22.1658 17.8357 22.4956 18.3292C22.8253 18.8227 23.0013 19.4029 23.0013 19.9965C23.0013 20.7924 22.6852 21.5557 22.1224 22.1185C21.5596 22.6812 20.7963 22.9974 20.0004 22.9974Z" fill="#FEFDF9"/>
<path d="M24.8046 16.2772C25.4011 16.2772 25.8846 15.7936 25.8846 15.1972C25.8846 14.6007 25.4011 14.1172 24.8046 14.1172C24.2081 14.1172 23.7246 14.6007 23.7246 15.1972C23.7246 15.7936 24.2081 16.2772 24.8046 16.2772Z" fill="#FEFDF9"/>
</g>
<defs>
<clipPath id="clip0_6191_2846">
<rect width="18" height="18" fill="white" transform="translate(11 11)"/>
</clipPath>
</defs>
</svg>
