<?xml version="1.0" encoding="UTF-8"?>
<svg id="Layer_2" xmlns="http://www.w3.org/2000/svg" version="1.1" viewBox="0 0 235.5 113.9">
  <!-- Generator: Adobe Illustrator 29.1.0, SVG Export Plug-In . SVG Version: 2.1.0 Build 142)  -->
  <defs>
    <style>
      .st0 {
        isolation: isolate;
      }

      .st1 {
        fill: #ececec;
      }
    </style>
  </defs>
  <g id="Layer_1-2">
    <g>
      <g>
        <g>
          <path class="st1" d="M9.6,84.3c-2.8,0-5.2-.8-7-2.4C.8,80.3,0,77.7,0,74l4.5-.6c-.2,2.7.2,4.6,1.2,5.8,1,1.2,2.3,1.7,3.9,1.7s2.6-.4,3.4-1.2c.8-.8,1.3-1.8,1.3-3s-.3-1.8-.8-2.5-1.1-1.4-1.9-2-1.8-1.3-3.1-2.1c-1.6-1-2.9-1.9-3.9-2.7-1-.8-1.8-1.8-2.5-2.9-.7-1.2-1-2.5-1-4.1s.3-2.6,1-3.7c.7-1.1,1.6-1.9,2.9-2.6,1.2-.6,2.7-.9,4.4-.9,2.7,0,4.9.7,6.6,2.2s2.6,3.9,2.8,7.2l-4.5.6c0-2.4-.4-4.1-1.3-5.1s-2.1-1.5-3.6-1.5-2.2.3-2.8.9c-.7.6-1,1.5-1,2.5s.5,2.5,1.4,3.4c1,1,2.4,2.1,4.4,3.4,1.6,1.1,2.9,2,3.9,2.8s1.8,1.8,2.5,2.9,1,2.4,1,3.9-.4,2.8-1.1,4-1.8,2.1-3.2,2.8c-1.4.7-3,1-4.9,1h0Z"/>
          <path class="st1" d="M30.5,83.6l.2-6.4v-20.5l-10,1.5.4-4.5h23.5l.4,4.5-10-1.5v20.5l.2,6.4h-4.7Z"/>
          <path class="st1" d="M40.3,83.6l13.7-29.9h3.7l13.7,29.9h-5.1l-1.9-5.3-9.1-21.2h1.3l-9.3,21.2-1.9,5.3h-5.1ZM47.8,73.6l1.7-3.4h12.6l1.7,3.4h-16.1.1Z"/>
          <path class="st1" d="M75.1,83.6l.2-6.4v-17.5l-.2-6h6c1.9,0,3.6.3,5,1s2.5,1.6,3.2,2.7,1.1,2.4,1.1,3.8-.4,3-1.3,4.1-2.1,1.9-3.8,2.5v-.6c1.2.3,2.3,1,3.2,1.9.9.9,1.7,1.9,2.3,3.1.6,1.1,1.3,2.7,2.2,4.6.7,1.6,1.3,2.9,1.8,3.9s1.1,1.9,1.7,2.8v.2h-5c-.5-.7-1-1.5-1.4-2.4s-.9-2-1.5-3.5c-.8-1.8-1.4-3.3-2-4.4s-1.3-2-2.2-2.7-2-1.1-3.3-1.1h-3.2v-3h3.2c1.5,0,2.7-.4,3.6-1.3s1.3-2,1.3-3.4-.4-2.5-1.3-3.4-2.1-1.3-3.6-1.3h-1.5v20.1l.2,6.4h-4.7,0Z"/>
          <path class="st1" d="M100,83.6l.2-6.4v-17.5l-.2-6h4.7l-.2,6v17.5l.2,6.4h-4.7Z"/>
          <path class="st1" d="M125,83.6l.2-6.4v-17.5l-.2-6h6.5c3,0,5.6.6,7.9,1.9,2.3,1.3,4.1,3,5.4,5.3s1.9,4.9,1.9,7.7-.6,5.4-1.9,7.7c-1.3,2.3-3.1,4.1-5.4,5.3-2.3,1.3-4.9,1.9-7.9,1.9h-6.5ZM129.4,81.3l-1.6-1.1h3.6c2.1,0,4-.4,5.6-1.4,1.6-.9,2.9-2.2,3.8-4,.9-1.7,1.3-3.8,1.3-6.2s-.4-4.5-1.3-6.2c-.9-1.7-2.1-3.1-3.8-4s-3.5-1.4-5.6-1.4h-3.6l1.6-1.1v25.4Z"/>
          <path class="st1" d="M160.3,83.6l-13.5-29.9h5.1l1.8,4.9,9.1,21.7h-1.3l9.3-21.7,1.8-4.9h5l-13.5,29.9h-3.8Z"/>
          <path class="st1" d="M193.7,84.3c-3.2,0-5.9-.7-8.4-2-2.4-1.3-4.3-3.2-5.6-5.5s-2-5.1-2-8.1.7-5.8,2-8.1,3.2-4.2,5.6-5.5,5.2-2,8.4-2,5.9.7,8.4,2c2.4,1.3,4.3,3.2,5.6,5.5s2,5.1,2,8.1-.7,5.7-2,8.1-3.2,4.2-5.6,5.5-5.2,2-8.4,2ZM193.7,80.7c2.2,0,4.2-.5,6-1.5s3.1-2.4,4.1-4.2c1-1.8,1.4-3.9,1.4-6.3s-.5-4.5-1.4-6.3-2.3-3.2-4.1-4.2-3.8-1.5-6-1.5-4.2.5-6,1.5-3.1,2.4-4.1,4.2-1.4,3.9-1.4,6.3.5,4.5,1.4,6.3c1,1.8,2.3,3.2,4.1,4.2s3.8,1.5,6,1.5Z"/>
          <path class="st1" d="M214,83.6l.2-6.4v-17.5l-.2-6h6c1.9,0,3.6.3,5,1s2.5,1.6,3.2,2.7,1.1,2.4,1.1,3.8-.4,3-1.3,4.1-2.1,1.9-3.8,2.5v-.6c1.2.3,2.3,1,3.2,1.9s1.7,1.9,2.3,3.1c.6,1.1,1.4,2.7,2.2,4.6.7,1.6,1.3,2.9,1.8,3.9s1.1,1.9,1.7,2.8v.2h-5c-.5-.7-1-1.5-1.4-2.4s-.9-2-1.5-3.5c-.8-1.8-1.4-3.3-2-4.4s-1.3-2-2.2-2.7-2-1.1-3.3-1.1h-3.2v-3h3.2c1.5,0,2.7-.4,3.6-1.3.9-.9,1.4-2,1.4-3.4s-.4-2.5-1.4-3.4c-.9-.9-2.1-1.3-3.6-1.3h-1.5v20.1l.2,6.4h-4.7Z"/>
        </g>
        <g>
          <path class="st1" d="M88,109.8c-1.1,0-2-.2-2.8-.7-.8-.4-1.4-1.1-1.9-1.9-.4-.8-.7-1.8-.7-2.9v-6.8h1.8v6.8c0,1.2.3,2.2,1,2.9s1.5,1,2.7,1,2-.3,2.7-1c.6-.7,1-1.6,1-2.9v-6.8h1.8v6.8c0,1.1-.2,2.1-.7,2.9s-1.1,1.5-1.9,1.9-1.7.7-2.8.7h-.2Z"/>
          <path class="st1" d="M102.8,109.8c-1.3,0-2.4-.3-3.4-.8s-1.7-1.3-2.3-2.2c-.5-.9-.8-2-.8-3.3s.3-2.3.8-3.2c.5-.9,1.3-1.7,2.2-2.2.9-.5,2-.8,3.2-.8s1.9.2,2.8.5,1.6.8,2.2,1.5,1,1.5,1.1,2.6l-1.8.3c0-1-.5-1.9-1.3-2.5s-1.8-.9-3-.9-1.6.2-2.3.6c-.7.4-1.2,1-1.6,1.7s-.6,1.6-.6,2.5.2,1.8.6,2.5.9,1.3,1.6,1.7,1.5.6,2.4.6c1.4,0,2.4-.4,3.1-1.1s1.1-1.8,1.1-3.2l.3.6-4.7.3.2-1.6h6v.4c0,2.2-.6,3.7-1.7,4.6s-2.6,1.4-4.2,1.4h.1Z"/>
          <path class="st1" d="M111.9,109.5v-12.1h1.8v10.8l4.7-.5-.2,1.8h-6.3Z"/>
          <path class="st1" d="M121.1,113.9v-16.5h1.8v16.5h-1.8Z"/>
          <path class="st1" d="M125.6,109.5l5.5-12h1.5l5.5,12h-2.1l-.8-2.2-3.7-8.6h.5l-3.8,8.6-.8,2.2h-2,.2ZM128.6,105.5l.7-1.4h5.1l.7,1.4h-6.5Z"/>
          <path class="st1" d="M140.6,109.5v-12.1h1.5l8.9,10.4h-.7v-10.4h1.7v12.1h-1.5l-8.9-10.4h.7v10.4h-1.7Z"/>
        </g>
      </g>
      <g>
        <g class="st0">
          <g class="st0">
            <path class="st1" d="M105.4,15.8c-.7-.7-1.1-1.7-1.1-3.2l1.8-.3v.4c0,.9.2,1.6.6,2s.9.6,1.5.6,1.1-.2,1.4-.5.5-.7.5-1.2,0-.7-.3-1-.5-.6-.8-.8-.7-.5-1.3-.9c-.7-.4-1.2-.8-1.6-1.1s-.8-.7-1-1.2c-.3-.5-.4-1-.4-1.7s0-1.1.4-1.5.7-.8,1.2-1.1c.5-.3,1.1-.4,1.8-.4,1.1,0,2,.3,2.7.9s1.1,1.6,1.1,3l-1.8.3c0-1-.2-1.7-.5-2.1-.4-.4-.9-.6-1.5-.6s-.9,0-1.2.4c-.3.3-.4.6-.4,1s.2,1,.6,1.4c.4.4,1,.9,1.8,1.4.7.4,1.2.8,1.6,1.2.4.3.7.7,1,1.2s.4,1,.4,1.6-.2,1.2-.5,1.6-.7.9-1.3,1.1c-.6.3-1.2.4-2,.4-1.2,0-2.1-.3-2.9-1h.2Z"/>
          </g>
        </g>
        <g class="st0">
          <g class="st0">
            <path class="st1" d="M123.8,18.9c1.2,0,2.3.3,3.2.8s1.7,1.2,2.2,2.2.8,2,.8,3.2-.3,2.2-.8,3.2-1.3,1.7-2.2,2.2-2,.8-3.2.8h-2.6v-12.3h2.6ZM123.8,29.7c.9,0,1.6-.2,2.3-.6.7-.4,1.2-.9,1.5-1.6.4-.7.5-1.6.5-2.5s-.2-1.8-.5-2.5c-.4-.7-.9-1.3-1.5-1.6-.7-.4-1.4-.6-2.3-.6h-.8v9.5h.8Z"/>
          </g>
        </g>
        <path class="st1" d="M116.3,39.8l-.7-1c-1.9-2.9-5.6-3.1-8.8-3.3-1.7,0-3.3-.2-4.5-.6-5.8-2.1-7.1-7.8-4.1-17.3,2.2-6.8,1.3-8.4,1-8.7-.3-.3-.7-.1-.7-.1l-1.5.5.4-1.5,2.3-7.8h33.2l2.7,9.4-1.5-.6s-.4-.2-.7.1c-.3.3-1.2,1.9,1,8.7,3,9.5,1.7,15.1-4.1,17.3-1.2.5-2.8.5-4.5.6-3.2.1-6.9.3-8.8,3.3l-.7,1ZM99.3,7.2c.3,0,.7.2,1,.5,1.4,1.3,1.3,4.7-.5,10.4-4,12.7,1.3,14.6,3.1,15.3,1,.4,2.5.5,4,.5,3.1.1,6.9.3,9.4,3.1,2.4-2.8,6.3-3,9.4-3.1,1.6,0,3-.1,4-.5,1.8-.7,7.2-2.7,3.1-15.3h0c-1.8-5.6-2-9-.5-10.4.3-.3.7-.5,1-.5l-1.6-5.6h-30.8l-1.6,5.6Z"/>
        <rect class="st1" x="115.5" y=".4" width="1.6" height="36.9"/>
        <rect class="st1" x="95.7" y="16.4" width="39.6" height="1.6" transform="translate(4.9 54.7) rotate(-27.2)"/>
      </g>
    </g>
  </g>
</svg>