<svg xmlns="http://www.w3.org/2000/svg" width="557.737" height="275.315" viewBox="0 0 557.737 275.315">
  <g id="Group_11839" data-name="Group 11839" transform="translate(-665.029 69.995)">
    <rect id="Rectangle_54" data-name="Rectangle 54" width="3.929" height="48.584" transform="translate(665.029 -37.605)" fill="#fff"/>
    <rect id="Rectangle_55" data-name="Rectangle 55" width="3.929" height="16.194" transform="translate(665.029 -69.995)" fill="#fff"/>
    <rect id="Rectangle_56" data-name="Rectangle 56" width="3.929" height="48.586" transform="translate(665.029 59.564)" fill="#fff"/>
    <rect id="Rectangle_57" data-name="Rectangle 57" width="3.929" height="16.196" transform="translate(665.029 27.175)" fill="#fff"/>
    <rect id="Rectangle_58" data-name="Rectangle 58" width="3.929" height="48.584" transform="translate(665.029 156.735)" fill="#fff"/>
    <rect id="Rectangle_59" data-name="Rectangle 59" width="3.929" height="16.194" transform="translate(665.029 124.345)" fill="#fff"/>
    <rect id="Rectangle_60" data-name="Rectangle 60" width="3.929" height="48.586" transform="translate(684.126 124.345)" fill="#fff"/>
    <rect id="Rectangle_61" data-name="Rectangle 61" width="3.929" height="16.196" transform="translate(684.126 189.125)" fill="#fff"/>
    <rect id="Rectangle_62" data-name="Rectangle 62" width="3.929" height="48.586" transform="translate(684.126 27.175)" fill="#fff"/>
    <rect id="Rectangle_63" data-name="Rectangle 63" width="3.929" height="16.196" transform="translate(684.126 91.955)" fill="#fff"/>
    <rect id="Rectangle_64" data-name="Rectangle 64" width="3.929" height="48.584" transform="translate(684.126 -69.995)" fill="#fff"/>
    <rect id="Rectangle_65" data-name="Rectangle 65" width="3.929" height="16.196" transform="translate(684.126 -5.215)" fill="#fff"/>
    <rect id="Rectangle_66" data-name="Rectangle 66" width="3.929" height="48.586" transform="translate(703.222 -37.606)" fill="#fff"/>
    <rect id="Rectangle_67" data-name="Rectangle 67" width="3.929" height="16.194" transform="translate(703.222 -69.995)" fill="#fff"/>
    <rect id="Rectangle_68" data-name="Rectangle 68" width="3.929" height="48.586" transform="translate(703.222 59.564)" fill="#fff"/>
    <rect id="Rectangle_69" data-name="Rectangle 69" width="3.929" height="16.196" transform="translate(703.222 27.174)" fill="#fff"/>
    <rect id="Rectangle_70" data-name="Rectangle 70" width="3.929" height="48.586" transform="translate(703.222 156.734)" fill="#fff"/>
    <rect id="Rectangle_71" data-name="Rectangle 71" width="3.929" height="16.196" transform="translate(703.222 124.345)" fill="#fff"/>
    <rect id="Rectangle_72" data-name="Rectangle 72" width="3.929" height="48.586" transform="translate(722.319 124.345)" fill="#fff"/>
    <rect id="Rectangle_73" data-name="Rectangle 73" width="3.929" height="16.196" transform="translate(722.319 189.125)" fill="#fff"/>
    <rect id="Rectangle_74" data-name="Rectangle 74" width="3.929" height="48.586" transform="translate(722.319 27.175)" fill="#fff"/>
    <rect id="Rectangle_75" data-name="Rectangle 75" width="3.929" height="16.196" transform="translate(722.319 91.955)" fill="#fff"/>
    <rect id="Rectangle_76" data-name="Rectangle 76" width="3.93" height="48.584" transform="translate(722.319 -69.995)" fill="#fff"/>
    <rect id="Rectangle_77" data-name="Rectangle 77" width="3.929" height="16.196" transform="translate(722.319 -5.215)" fill="#fff"/>
    <rect id="Rectangle_78" data-name="Rectangle 78" width="3.929" height="48.586" transform="translate(741.417 -37.606)" fill="#fff"/>
    <rect id="Rectangle_79" data-name="Rectangle 79" width="3.929" height="16.194" transform="translate(741.417 -69.995)" fill="#fff"/>
    <rect id="Rectangle_80" data-name="Rectangle 80" width="3.929" height="48.586" transform="translate(741.417 59.564)" fill="#fff"/>
    <rect id="Rectangle_81" data-name="Rectangle 81" width="3.929" height="16.196" transform="translate(741.417 27.174)" fill="#fff"/>
    <rect id="Rectangle_82" data-name="Rectangle 82" width="3.929" height="48.586" transform="translate(741.417 156.734)" fill="#fff"/>
    <rect id="Rectangle_83" data-name="Rectangle 83" width="3.929" height="16.196" transform="translate(741.417 124.345)" fill="#fff"/>
    <rect id="Rectangle_84" data-name="Rectangle 84" width="3.929" height="48.586" transform="translate(760.514 124.345)" fill="#fff"/>
    <rect id="Rectangle_85" data-name="Rectangle 85" width="3.929" height="16.196" transform="translate(760.514 189.125)" fill="#fff"/>
    <rect id="Rectangle_86" data-name="Rectangle 86" width="3.929" height="48.586" transform="translate(760.514 27.175)" fill="#fff"/>
    <rect id="Rectangle_87" data-name="Rectangle 87" width="3.929" height="16.196" transform="translate(760.514 91.955)" fill="#fff"/>
    <rect id="Rectangle_88" data-name="Rectangle 88" width="3.929" height="48.584" transform="translate(760.514 -69.995)" fill="#fff"/>
    <rect id="Rectangle_89" data-name="Rectangle 89" width="3.929" height="16.196" transform="translate(760.514 -5.215)" fill="#fff"/>
    <rect id="Rectangle_90" data-name="Rectangle 90" width="3.929" height="48.586" transform="translate(779.61 -37.606)" fill="#fff"/>
    <rect id="Rectangle_91" data-name="Rectangle 91" width="3.929" height="16.194" transform="translate(779.61 -69.995)" fill="#fff"/>
    <rect id="Rectangle_92" data-name="Rectangle 92" width="3.929" height="48.586" transform="translate(779.61 59.564)" fill="#fff"/>
    <rect id="Rectangle_93" data-name="Rectangle 93" width="3.929" height="16.196" transform="translate(779.61 27.174)" fill="#fff"/>
    <rect id="Rectangle_94" data-name="Rectangle 94" width="3.929" height="48.586" transform="translate(779.61 156.734)" fill="#fff"/>
    <rect id="Rectangle_95" data-name="Rectangle 95" width="3.929" height="16.196" transform="translate(779.61 124.345)" fill="#fff"/>
    <rect id="Rectangle_96" data-name="Rectangle 96" width="3.929" height="48.586" transform="translate(798.707 124.345)" fill="#fff"/>
    <rect id="Rectangle_97" data-name="Rectangle 97" width="3.929" height="16.196" transform="translate(798.707 189.125)" fill="#fff"/>
    <rect id="Rectangle_98" data-name="Rectangle 98" width="3.929" height="48.586" transform="translate(798.707 27.175)" fill="#fff"/>
    <rect id="Rectangle_99" data-name="Rectangle 99" width="3.929" height="16.196" transform="translate(798.707 91.955)" fill="#fff"/>
    <rect id="Rectangle_100" data-name="Rectangle 100" width="3.929" height="48.584" transform="translate(798.707 -69.995)" fill="#fff"/>
    <rect id="Rectangle_101" data-name="Rectangle 101" width="3.929" height="16.196" transform="translate(798.707 -5.215)" fill="#fff"/>
    <rect id="Rectangle_102" data-name="Rectangle 102" width="3.929" height="48.586" transform="translate(817.804 -37.606)" fill="#fff"/>
    <rect id="Rectangle_103" data-name="Rectangle 103" width="3.929" height="16.194" transform="translate(817.804 -69.995)" fill="#fff"/>
    <rect id="Rectangle_104" data-name="Rectangle 104" width="3.929" height="48.586" transform="translate(817.804 59.564)" fill="#fff"/>
    <rect id="Rectangle_105" data-name="Rectangle 105" width="3.929" height="16.196" transform="translate(817.804 27.174)" fill="#fff"/>
    <rect id="Rectangle_106" data-name="Rectangle 106" width="3.929" height="48.586" transform="translate(817.804 156.734)" fill="#fff"/>
    <rect id="Rectangle_107" data-name="Rectangle 107" width="3.929" height="16.196" transform="translate(817.804 124.345)" fill="#fff"/>
    <rect id="Rectangle_108" data-name="Rectangle 108" width="3.929" height="48.586" transform="translate(836.901 124.345)" fill="#fff"/>
    <rect id="Rectangle_109" data-name="Rectangle 109" width="3.929" height="16.196" transform="translate(836.901 189.125)" fill="#fff"/>
    <rect id="Rectangle_110" data-name="Rectangle 110" width="3.929" height="48.586" transform="translate(836.901 27.175)" fill="#fff"/>
    <rect id="Rectangle_111" data-name="Rectangle 111" width="3.929" height="16.196" transform="translate(836.901 91.955)" fill="#fff"/>
    <rect id="Rectangle_112" data-name="Rectangle 112" width="3.929" height="48.584" transform="translate(836.9 -69.995)" fill="#fff"/>
    <rect id="Rectangle_113" data-name="Rectangle 113" width="3.929" height="16.196" transform="translate(836.901 -5.215)" fill="#fff"/>
    <rect id="Rectangle_114" data-name="Rectangle 114" width="3.929" height="48.586" transform="translate(855.997 -37.606)" fill="#fff"/>
    <rect id="Rectangle_115" data-name="Rectangle 115" width="3.93" height="16.194" transform="translate(855.997 -69.995)" fill="#fff"/>
    <rect id="Rectangle_116" data-name="Rectangle 116" width="3.929" height="48.586" transform="translate(855.997 59.564)" fill="#fff"/>
    <rect id="Rectangle_117" data-name="Rectangle 117" width="3.929" height="16.196" transform="translate(855.997 27.174)" fill="#fff"/>
    <rect id="Rectangle_118" data-name="Rectangle 118" width="3.929" height="48.586" transform="translate(855.997 156.734)" fill="#fff"/>
    <rect id="Rectangle_119" data-name="Rectangle 119" width="3.929" height="16.196" transform="translate(855.997 124.345)" fill="#fff"/>
    <rect id="Rectangle_120" data-name="Rectangle 120" width="3.929" height="48.586" transform="translate(875.094 124.345)" fill="#fff"/>
    <rect id="Rectangle_121" data-name="Rectangle 121" width="3.929" height="16.196" transform="translate(875.094 189.125)" fill="#fff"/>
    <rect id="Rectangle_122" data-name="Rectangle 122" width="3.929" height="48.586" transform="translate(875.094 27.175)" fill="#fff"/>
    <rect id="Rectangle_123" data-name="Rectangle 123" width="3.929" height="16.196" transform="translate(875.094 91.955)" fill="#fff"/>
    <rect id="Rectangle_124" data-name="Rectangle 124" width="3.929" height="48.584" transform="translate(875.094 -69.995)" fill="#fff"/>
    <rect id="Rectangle_125" data-name="Rectangle 125" width="3.929" height="16.196" transform="translate(875.094 -5.215)" fill="#fff"/>
    <rect id="Rectangle_126" data-name="Rectangle 126" width="3.929" height="48.586" transform="translate(894.191 -37.606)" fill="#fff"/>
    <rect id="Rectangle_127" data-name="Rectangle 127" width="3.929" height="16.194" transform="translate(894.191 -69.995)" fill="#fff"/>
    <rect id="Rectangle_128" data-name="Rectangle 128" width="3.929" height="48.586" transform="translate(894.191 59.564)" fill="#fff"/>
    <rect id="Rectangle_129" data-name="Rectangle 129" width="3.929" height="16.196" transform="translate(894.191 27.174)" fill="#fff"/>
    <rect id="Rectangle_130" data-name="Rectangle 130" width="3.929" height="48.586" transform="translate(894.191 156.734)" fill="#fff"/>
    <rect id="Rectangle_131" data-name="Rectangle 131" width="3.929" height="16.196" transform="translate(894.191 124.345)" fill="#fff"/>
    <rect id="Rectangle_132" data-name="Rectangle 132" width="3.929" height="48.586" transform="translate(913.288 124.345)" fill="#fff"/>
    <rect id="Rectangle_133" data-name="Rectangle 133" width="3.929" height="16.196" transform="translate(913.288 189.125)" fill="#fff"/>
    <rect id="Rectangle_134" data-name="Rectangle 134" width="3.929" height="48.586" transform="translate(913.288 27.175)" fill="#fff"/>
    <rect id="Rectangle_135" data-name="Rectangle 135" width="3.929" height="16.196" transform="translate(913.288 91.955)" fill="#fff"/>
    <rect id="Rectangle_136" data-name="Rectangle 136" width="3.929" height="48.584" transform="translate(913.288 -69.995)" fill="#fff"/>
    <rect id="Rectangle_137" data-name="Rectangle 137" width="3.929" height="16.196" transform="translate(913.288 -5.215)" fill="#fff"/>
    <rect id="Rectangle_138" data-name="Rectangle 138" width="3.929" height="48.586" transform="translate(932.384 -37.606)" fill="#fff"/>
    <rect id="Rectangle_139" data-name="Rectangle 139" width="3.929" height="16.194" transform="translate(932.384 -69.995)" fill="#fff"/>
    <rect id="Rectangle_140" data-name="Rectangle 140" width="3.929" height="48.586" transform="translate(932.384 59.564)" fill="#fff"/>
    <rect id="Rectangle_141" data-name="Rectangle 141" width="3.929" height="16.196" transform="translate(932.384 27.174)" fill="#fff"/>
    <rect id="Rectangle_142" data-name="Rectangle 142" width="3.929" height="48.586" transform="translate(932.384 156.734)" fill="#fff"/>
    <rect id="Rectangle_143" data-name="Rectangle 143" width="3.929" height="16.196" transform="translate(932.384 124.345)" fill="#fff"/>
    <rect id="Rectangle_144" data-name="Rectangle 144" width="3.929" height="48.586" transform="translate(951.481 124.345)" fill="#fff"/>
    <rect id="Rectangle_145" data-name="Rectangle 145" width="3.929" height="16.196" transform="translate(951.481 189.125)" fill="#fff"/>
    <rect id="Rectangle_146" data-name="Rectangle 146" width="3.929" height="48.586" transform="translate(951.481 27.175)" fill="#fff"/>
    <rect id="Rectangle_147" data-name="Rectangle 147" width="3.929" height="16.196" transform="translate(951.481 91.955)" fill="#fff"/>
    <rect id="Rectangle_148" data-name="Rectangle 148" width="3.929" height="48.584" transform="translate(951.481 -69.995)" fill="#fff"/>
    <rect id="Rectangle_149" data-name="Rectangle 149" width="3.929" height="16.196" transform="translate(951.481 -5.215)" fill="#fff"/>
    <rect id="Rectangle_150" data-name="Rectangle 150" width="3.929" height="48.586" transform="translate(970.578 -37.606)" fill="#fff"/>
    <rect id="Rectangle_151" data-name="Rectangle 151" width="3.93" height="16.194" transform="translate(970.577 -69.995)" fill="#fff"/>
    <rect id="Rectangle_152" data-name="Rectangle 152" width="3.929" height="48.586" transform="translate(970.578 59.564)" fill="#fff"/>
    <rect id="Rectangle_153" data-name="Rectangle 153" width="3.929" height="16.196" transform="translate(970.578 27.174)" fill="#fff"/>
    <rect id="Rectangle_154" data-name="Rectangle 154" width="3.929" height="48.586" transform="translate(970.578 156.734)" fill="#fff"/>
    <rect id="Rectangle_155" data-name="Rectangle 155" width="3.929" height="16.196" transform="translate(970.578 124.345)" fill="#fff"/>
    <rect id="Rectangle_156" data-name="Rectangle 156" width="3.929" height="48.586" transform="translate(989.675 124.345)" fill="#fff"/>
    <rect id="Rectangle_157" data-name="Rectangle 157" width="3.929" height="16.196" transform="translate(989.675 189.125)" fill="#fff"/>
    <rect id="Rectangle_158" data-name="Rectangle 158" width="3.929" height="48.586" transform="translate(989.675 27.175)" fill="#fff"/>
    <rect id="Rectangle_159" data-name="Rectangle 159" width="3.929" height="16.196" transform="translate(989.675 91.955)" fill="#fff"/>
    <rect id="Rectangle_160" data-name="Rectangle 160" width="3.929" height="48.584" transform="translate(989.675 -69.995)" fill="#fff"/>
    <rect id="Rectangle_161" data-name="Rectangle 161" width="3.929" height="16.196" transform="translate(989.675 -5.215)" fill="#fff"/>
    <rect id="Rectangle_162" data-name="Rectangle 162" width="3.929" height="48.586" transform="translate(1008.771 -37.606)" fill="#fff"/>
    <rect id="Rectangle_163" data-name="Rectangle 163" width="3.929" height="16.194" transform="translate(1008.771 -69.995)" fill="#fff"/>
    <rect id="Rectangle_164" data-name="Rectangle 164" width="3.929" height="48.586" transform="translate(1008.771 59.564)" fill="#fff"/>
    <rect id="Rectangle_165" data-name="Rectangle 165" width="3.929" height="16.196" transform="translate(1008.771 27.174)" fill="#fff"/>
    <rect id="Rectangle_166" data-name="Rectangle 166" width="3.929" height="48.586" transform="translate(1008.771 156.734)" fill="#fff"/>
    <rect id="Rectangle_167" data-name="Rectangle 167" width="3.929" height="16.196" transform="translate(1008.771 124.345)" fill="#fff"/>
    <rect id="Rectangle_168" data-name="Rectangle 168" width="3.929" height="48.586" transform="translate(1027.868 124.345)" fill="#fff"/>
    <rect id="Rectangle_169" data-name="Rectangle 169" width="3.929" height="16.196" transform="translate(1027.868 189.125)" fill="#fff"/>
    <rect id="Rectangle_170" data-name="Rectangle 170" width="3.929" height="48.586" transform="translate(1027.868 27.175)" fill="#fff"/>
    <rect id="Rectangle_171" data-name="Rectangle 171" width="3.929" height="16.196" transform="translate(1027.868 91.955)" fill="#fff"/>
    <rect id="Rectangle_172" data-name="Rectangle 172" width="3.929" height="48.584" transform="translate(1027.868 -69.995)" fill="#fff"/>
    <rect id="Rectangle_173" data-name="Rectangle 173" width="3.929" height="16.196" transform="translate(1027.868 -5.215)" fill="#fff"/>
    <rect id="Rectangle_174" data-name="Rectangle 174" width="3.929" height="48.586" transform="translate(1046.965 -37.606)" fill="#fff"/>
    <rect id="Rectangle_175" data-name="Rectangle 175" width="3.929" height="16.194" transform="translate(1046.965 -69.995)" fill="#fff"/>
    <rect id="Rectangle_176" data-name="Rectangle 176" width="3.929" height="48.586" transform="translate(1046.965 59.564)" fill="#fff"/>
    <rect id="Rectangle_177" data-name="Rectangle 177" width="3.929" height="16.196" transform="translate(1046.965 27.174)" fill="#fff"/>
    <rect id="Rectangle_178" data-name="Rectangle 178" width="3.929" height="48.586" transform="translate(1046.965 156.734)" fill="#fff"/>
    <rect id="Rectangle_179" data-name="Rectangle 179" width="3.929" height="16.196" transform="translate(1046.965 124.345)" fill="#fff"/>
    <rect id="Rectangle_180" data-name="Rectangle 180" width="3.929" height="48.586" transform="translate(1066.063 124.345)" fill="#fff"/>
    <rect id="Rectangle_181" data-name="Rectangle 181" width="3.929" height="16.196" transform="translate(1066.063 189.125)" fill="#fff"/>
    <rect id="Rectangle_182" data-name="Rectangle 182" width="3.929" height="48.586" transform="translate(1066.063 27.175)" fill="#fff"/>
    <rect id="Rectangle_183" data-name="Rectangle 183" width="3.929" height="16.196" transform="translate(1066.063 91.955)" fill="#fff"/>
    <rect id="Rectangle_184" data-name="Rectangle 184" width="3.929" height="48.584" transform="translate(1066.061 -69.995)" fill="#fff"/>
    <rect id="Rectangle_185" data-name="Rectangle 185" width="3.929" height="16.196" transform="translate(1066.063 -5.215)" fill="#fff"/>
    <rect id="Rectangle_186" data-name="Rectangle 186" width="3.929" height="48.586" transform="translate(1085.158 -37.606)" fill="#fff"/>
    <rect id="Rectangle_187" data-name="Rectangle 187" width="3.929" height="16.194" transform="translate(1085.158 -69.995)" fill="#fff"/>
    <rect id="Rectangle_188" data-name="Rectangle 188" width="3.929" height="48.586" transform="translate(1085.158 59.564)" fill="#fff"/>
    <rect id="Rectangle_189" data-name="Rectangle 189" width="3.929" height="16.196" transform="translate(1085.158 27.174)" fill="#fff"/>
    <rect id="Rectangle_190" data-name="Rectangle 190" width="3.929" height="48.586" transform="translate(1085.158 156.734)" fill="#fff"/>
    <rect id="Rectangle_191" data-name="Rectangle 191" width="3.929" height="16.196" transform="translate(1085.158 124.345)" fill="#fff"/>
    <rect id="Rectangle_192" data-name="Rectangle 192" width="3.929" height="48.586" transform="translate(1104.255 124.345)" fill="#fff"/>
    <rect id="Rectangle_193" data-name="Rectangle 193" width="3.929" height="16.196" transform="translate(1104.255 189.125)" fill="#fff"/>
    <rect id="Rectangle_194" data-name="Rectangle 194" width="3.929" height="48.586" transform="translate(1104.255 27.175)" fill="#fff"/>
    <rect id="Rectangle_195" data-name="Rectangle 195" width="3.929" height="16.196" transform="translate(1104.255 91.955)" fill="#fff"/>
    <rect id="Rectangle_196" data-name="Rectangle 196" width="3.93" height="48.584" transform="translate(1104.254 -69.995)" fill="#fff"/>
    <rect id="Rectangle_197" data-name="Rectangle 197" width="3.929" height="16.196" transform="translate(1104.255 -5.215)" fill="#fff"/>
    <rect id="Rectangle_198" data-name="Rectangle 198" width="3.929" height="48.586" transform="translate(1123.353 -37.606)" fill="#fff"/>
    <rect id="Rectangle_199" data-name="Rectangle 199" width="3.929" height="16.194" transform="translate(1123.353 -69.995)" fill="#fff"/>
    <rect id="Rectangle_200" data-name="Rectangle 200" width="3.929" height="48.586" transform="translate(1123.353 59.564)" fill="#fff"/>
    <rect id="Rectangle_201" data-name="Rectangle 201" width="3.929" height="16.196" transform="translate(1123.353 27.174)" fill="#fff"/>
    <rect id="Rectangle_202" data-name="Rectangle 202" width="3.929" height="48.586" transform="translate(1123.353 156.734)" fill="#fff"/>
    <rect id="Rectangle_203" data-name="Rectangle 203" width="3.929" height="16.196" transform="translate(1123.353 124.345)" fill="#fff"/>
    <rect id="Rectangle_204" data-name="Rectangle 204" width="3.929" height="48.586" transform="translate(1142.45 124.345)" fill="#fff"/>
    <rect id="Rectangle_205" data-name="Rectangle 205" width="3.929" height="16.196" transform="translate(1142.45 189.125)" fill="#fff"/>
    <rect id="Rectangle_206" data-name="Rectangle 206" width="3.929" height="48.586" transform="translate(1142.45 27.175)" fill="#fff"/>
    <rect id="Rectangle_207" data-name="Rectangle 207" width="3.929" height="16.196" transform="translate(1142.45 91.955)" fill="#fff"/>
    <rect id="Rectangle_208" data-name="Rectangle 208" width="3.929" height="48.584" transform="translate(1142.45 -69.995)" fill="#fff"/>
    <rect id="Rectangle_209" data-name="Rectangle 209" width="3.929" height="16.196" transform="translate(1142.45 -5.215)" fill="#fff"/>
    <rect id="Rectangle_210" data-name="Rectangle 210" width="3.929" height="48.586" transform="translate(1161.546 -37.606)" fill="#fff"/>
    <rect id="Rectangle_211" data-name="Rectangle 211" width="3.929" height="16.194" transform="translate(1161.546 -69.995)" fill="#fff"/>
    <rect id="Rectangle_212" data-name="Rectangle 212" width="3.929" height="48.586" transform="translate(1161.546 59.564)" fill="#fff"/>
    <rect id="Rectangle_213" data-name="Rectangle 213" width="3.929" height="16.196" transform="translate(1161.546 27.174)" fill="#fff"/>
    <rect id="Rectangle_214" data-name="Rectangle 214" width="3.929" height="48.586" transform="translate(1161.546 156.734)" fill="#fff"/>
    <rect id="Rectangle_215" data-name="Rectangle 215" width="3.929" height="16.196" transform="translate(1161.546 124.345)" fill="#fff"/>
    <rect id="Rectangle_216" data-name="Rectangle 216" width="3.929" height="48.586" transform="translate(1180.643 124.345)" fill="#fff"/>
    <rect id="Rectangle_217" data-name="Rectangle 217" width="3.929" height="16.196" transform="translate(1180.643 189.125)" fill="#fff"/>
    <rect id="Rectangle_218" data-name="Rectangle 218" width="3.929" height="48.586" transform="translate(1180.643 27.175)" fill="#fff"/>
    <rect id="Rectangle_219" data-name="Rectangle 219" width="3.929" height="16.196" transform="translate(1180.643 91.955)" fill="#fff"/>
    <rect id="Rectangle_220" data-name="Rectangle 220" width="3.929" height="48.584" transform="translate(1180.643 -69.995)" fill="#fff"/>
    <rect id="Rectangle_221" data-name="Rectangle 221" width="3.929" height="16.196" transform="translate(1180.643 -5.215)" fill="#fff"/>
    <rect id="Rectangle_222" data-name="Rectangle 222" width="3.929" height="48.586" transform="translate(1199.74 -37.606)" fill="#fff"/>
    <rect id="Rectangle_223" data-name="Rectangle 223" width="3.929" height="16.194" transform="translate(1199.739 -69.995)" fill="#fff"/>
    <rect id="Rectangle_224" data-name="Rectangle 224" width="3.929" height="48.586" transform="translate(1199.74 59.564)" fill="#fff"/>
    <rect id="Rectangle_225" data-name="Rectangle 225" width="3.929" height="16.196" transform="translate(1199.74 27.174)" fill="#fff"/>
    <rect id="Rectangle_226" data-name="Rectangle 226" width="3.929" height="48.586" transform="translate(1199.74 156.734)" fill="#fff"/>
    <rect id="Rectangle_227" data-name="Rectangle 227" width="3.929" height="16.196" transform="translate(1199.74 124.345)" fill="#fff"/>
    <rect id="Rectangle_228" data-name="Rectangle 228" width="3.929" height="48.586" transform="translate(1218.837 124.345)" fill="#fff"/>
    <rect id="Rectangle_229" data-name="Rectangle 229" width="3.929" height="16.196" transform="translate(1218.837 189.125)" fill="#fff"/>
    <rect id="Rectangle_230" data-name="Rectangle 230" width="3.929" height="48.586" transform="translate(1218.837 27.175)" fill="#fff"/>
    <rect id="Rectangle_231" data-name="Rectangle 231" width="3.929" height="16.196" transform="translate(1218.837 91.955)" fill="#fff"/>
    <rect id="Rectangle_232" data-name="Rectangle 232" width="3.93" height="48.584" transform="translate(1218.836 -69.995)" fill="#fff"/>
    <rect id="Rectangle_233" data-name="Rectangle 233" width="3.929" height="16.196" transform="translate(1218.837 -5.215)" fill="#fff"/>
  </g>
</svg>
