<svg width="40" height="40" viewBox="0 0 40 40" fill="none" xmlns="http://www.w3.org/2000/svg">
<path d="M24.4469 13.7421C23.2768 12.6187 21.6573 12 19.887 12C17.1828 12 15.5196 13.1085 14.6005 14.0383C13.4678 15.1843 12.8184 16.7059 12.8184 18.2131C12.8184 20.1054 13.6099 21.5579 14.9354 22.0982C15.0244 22.1347 15.1139 22.153 15.2017 22.153C15.4814 22.153 15.7029 21.97 15.7797 21.6766C15.8244 21.5082 15.9281 21.0928 15.9732 20.9125C16.0697 20.5563 15.9917 20.385 15.7813 20.1371C15.3979 19.6834 15.2194 19.147 15.2194 18.4489C15.2194 16.3754 16.7634 14.1716 19.6251 14.1716C21.8957 14.1716 23.3062 15.4621 23.3062 17.5395C23.3062 18.8505 23.0238 20.0645 22.511 20.9582C22.1545 21.5791 21.5278 22.3193 20.5657 22.3193C20.1497 22.3193 19.776 22.1484 19.5402 21.8505C19.3174 21.5688 19.244 21.205 19.3336 20.8258C19.4348 20.3973 19.5728 19.9504 19.7064 19.5183C19.95 18.7292 20.1803 17.9839 20.1803 17.3893C20.1803 16.3722 19.555 15.6888 18.6245 15.6888C17.4419 15.6888 16.5154 16.8899 16.5154 18.4232C16.5154 19.1752 16.7153 19.7377 16.8058 19.9536C16.6568 20.5848 15.7714 24.3374 15.6034 25.0451C15.5063 25.4581 14.9214 28.7208 15.8896 28.981C16.9775 29.2733 17.9499 26.0956 18.0489 25.7366C18.1291 25.4446 18.4098 24.3403 18.5817 23.6615C19.1069 24.1674 19.9525 24.5094 20.7753 24.5094C22.3264 24.5094 23.7213 23.8114 24.7032 22.5441C25.6554 21.3149 26.1798 19.6017 26.1798 17.7203C26.1798 16.2495 25.5481 14.7994 24.4469 13.7421Z" fill="#FEFDF9"/>
</svg>
