<?xml version="1.0" encoding="UTF-8"?>
<svg id="Layer_2" data-name="Layer 2" xmlns="http://www.w3.org/2000/svg" viewBox="0 0 235.51 113.94">
  <defs>
    <style>
      .cls-1 {
        letter-spacing: -.03em;
      }

      .cls-1, .cls-2 {
        font-family: TTRicordiGretoTrial-Regular, 'TT Ricordi Greto Trial';
        font-size: 17.54px;
      }

      .cls-1, .cls-2, .cls-3 {
        fill: #ececec;
      }

      .cls-4 {
        fill: none;
        stroke: #ececec;
        stroke-miterlimit: 10;
        stroke-width: 1.63px;
      }
    </style>
  </defs>
  <g id="Layer_1-2" data-name="Layer 1">
    <g>
      <g>
        <g>
          <path class="cls-3" d="M9.62,84.28c-2.85,0-5.18-.8-7-2.39C.79,80.3-.08,77.68,0,74.03l4.48-.64c-.17,2.68.23,4.59,1.22,5.75.98,1.15,2.28,1.73,3.91,1.73,1.45,0,2.6-.38,3.44-1.15.84-.77,1.26-1.77,1.26-2.99,0-.94-.26-1.79-.77-2.54-.51-.75-1.15-1.43-1.92-2.03-.77-.6-1.79-1.3-3.08-2.09-1.6-1.03-2.89-1.94-3.89-2.73-1-.8-1.84-1.78-2.54-2.95-.7-1.17-1.05-2.53-1.05-4.1,0-1.37.33-2.59,1-3.67.67-1.08,1.63-1.94,2.88-2.56,1.25-.63,2.73-.94,4.44-.94,2.73,0,4.95.73,6.64,2.2,1.69,1.47,2.61,3.87,2.75,7.2l-4.48.64c.03-2.39-.41-4.09-1.32-5.1-.91-1.01-2.11-1.52-3.59-1.52-1.22,0-2.17.31-2.84.94-.67.63-1,1.47-1,2.52,0,1.31.48,2.46,1.45,3.44.97.98,2.43,2.13,4.4,3.44,1.62,1.08,2.92,2.03,3.89,2.84.97.81,1.79,1.78,2.48,2.9.68,1.12,1.03,2.41,1.03,3.87s-.37,2.81-1.11,3.99c-.74,1.18-1.8,2.11-3.18,2.8-1.38.68-3.01,1.03-4.89,1.03Z"/>
          <path class="cls-3" d="M30.5,83.64l.21-6.41v-20.5l-10.04,1.5.43-4.49h23.49l.43,4.49-10.03-1.5v20.5l.21,6.41h-4.7Z"/>
          <path class="cls-3" d="M40.32,83.64l13.71-29.9h3.67l13.71,29.9h-5.13l-1.88-5.34-9.14-21.23h1.28l-9.35,21.23-1.88,5.34h-5ZM47.84,73.61l1.71-3.42h12.64l1.71,3.42h-16.06Z"/>
          <path class="cls-3" d="M75.05,83.64l.21-6.41v-17.51l-.21-5.98h5.98c1.94,0,3.62.34,5.04,1,1.42.67,2.51,1.57,3.25,2.71.74,1.14,1.11,2.39,1.11,3.76,0,1.62-.43,2.99-1.28,4.1-.85,1.11-2.14,1.95-3.84,2.52v-.64c1.25.34,2.33.97,3.25,1.88.91.91,1.67,1.94,2.29,3.08.61,1.14,1.35,2.66,2.2,4.57.71,1.59,1.32,2.88,1.82,3.87.5.98,1.06,1.93,1.69,2.84v.21h-5c-.54-.74-1.02-1.54-1.43-2.41-.41-.87-.92-2.03-1.52-3.48-.77-1.85-1.44-3.31-2.01-4.38-.57-1.07-1.31-1.97-2.22-2.71-.91-.74-2.02-1.11-3.33-1.11h-3.25v-2.99h3.25c1.48,0,2.67-.43,3.57-1.3.9-.87,1.35-2,1.35-3.4s-.45-2.53-1.35-3.4c-.9-.87-2.09-1.3-3.57-1.3h-1.49v20.07l.21,6.41h-4.7Z"/>
          <path class="cls-3" d="M99.98,83.64l.21-6.41v-17.51l-.21-5.98h4.7l-.21,5.98v17.51l.21,6.41h-4.7Z"/>
          <path class="cls-3" d="M124.96,83.64l.21-6.41v-17.51l-.21-5.98h6.45c2.96,0,5.6.63,7.9,1.9,2.31,1.27,4.1,3.04,5.38,5.32,1.28,2.28,1.92,4.86,1.92,7.73s-.64,5.45-1.92,7.73c-1.28,2.28-3.08,4.05-5.38,5.32-2.31,1.27-4.94,1.9-7.9,1.9h-6.45ZM129.45,81.29l-1.62-1.07h3.59c2.14,0,4.01-.45,5.64-1.37,1.62-.91,2.88-2.23,3.76-3.97.88-1.74,1.32-3.8,1.32-6.19s-.44-4.46-1.32-6.19c-.88-1.74-2.14-3.06-3.76-3.97-1.62-.91-3.5-1.37-5.64-1.37h-3.59l1.62-1.07v25.2Z"/>
          <path class="cls-3" d="M160.28,83.64l-13.5-29.9h5.13l1.75,4.91,9.05,21.66h-1.28l9.27-21.66,1.75-4.91h5l-13.5,29.9h-3.67Z"/>
          <path class="cls-3" d="M193.7,84.28c-3.16,0-5.95-.66-8.37-1.99-2.42-1.32-4.3-3.16-5.64-5.51-1.34-2.35-2.01-5.05-2.01-8.09s.67-5.75,2.01-8.09c1.34-2.35,3.22-4.19,5.64-5.51,2.42-1.32,5.21-1.99,8.37-1.99s5.95.66,8.37,1.99c2.42,1.32,4.3,3.16,5.64,5.51,1.34,2.35,2.01,5.05,2.01,8.09s-.67,5.74-2.01,8.09c-1.34,2.35-3.22,4.19-5.64,5.51-2.42,1.32-5.21,1.99-8.37,1.99ZM193.7,80.65c2.25,0,4.25-.49,6-1.47,1.75-.98,3.11-2.38,4.08-4.19.97-1.81,1.45-3.91,1.45-6.3s-.48-4.49-1.45-6.3c-.97-1.81-2.33-3.2-4.08-4.19-1.75-.98-3.75-1.47-6-1.47s-4.25.49-6,1.47c-1.75.98-3.11,2.38-4.08,4.19-.97,1.81-1.45,3.91-1.45,6.3s.48,4.49,1.45,6.3c.97,1.81,2.33,3.2,4.08,4.19,1.75.98,3.75,1.47,6,1.47Z"/>
          <path class="cls-3" d="M214.03,83.64l.21-6.41v-17.51l-.21-5.98h5.98c1.94,0,3.62.34,5.04,1,1.42.67,2.51,1.57,3.25,2.71.74,1.14,1.11,2.39,1.11,3.76,0,1.62-.43,2.99-1.28,4.1-.85,1.11-2.14,1.95-3.84,2.52v-.64c1.25.34,2.33.97,3.25,1.88.91.91,1.67,1.94,2.29,3.08.61,1.14,1.35,2.66,2.2,4.57.71,1.59,1.32,2.88,1.82,3.87.5.98,1.06,1.93,1.69,2.84v.21h-5c-.54-.74-1.02-1.54-1.43-2.41-.41-.87-.92-2.03-1.52-3.48-.77-1.85-1.44-3.31-2.01-4.38-.57-1.07-1.31-1.97-2.22-2.71-.91-.74-2.02-1.11-3.33-1.11h-3.25v-2.99h3.25c1.48,0,2.67-.43,3.57-1.3.9-.87,1.35-2,1.35-3.4s-.45-2.53-1.35-3.4c-.9-.87-2.09-1.3-3.57-1.3h-1.49v20.07l.21,6.41h-4.7Z"/>
        </g>
        <g>
          <path class="cls-3" d="M88.01,109.77c-1.05,0-1.99-.23-2.79-.68-.81-.45-1.44-1.09-1.88-1.93-.45-.83-.67-1.8-.67-2.9v-4.38l-.09-2.41h1.89l-.09,2.41v4.38c0,1.24.32,2.19.96,2.86.64.67,1.53,1.01,2.67,1.01s2.02-.34,2.67-1.01c.64-.67.96-1.62.96-2.86v-4.38l-.09-2.41h1.89l-.09,2.41v4.38c0,1.1-.22,2.07-.67,2.9-.45.83-1.07,1.47-1.88,1.93s-1.74.68-2.79.68Z"/>
          <path class="cls-3" d="M102.79,109.77c-1.27,0-2.4-.27-3.37-.8-.97-.53-1.73-1.27-2.27-2.22-.54-.95-.81-2.03-.81-3.26s.27-2.3.8-3.25c.53-.95,1.28-1.69,2.23-2.23.95-.53,2.03-.8,3.25-.8.96,0,1.89.16,2.78.49.89.33,1.64.83,2.25,1.51.61.68.97,1.54,1.07,2.57l-1.81.26c-.08-1.04-.52-1.87-1.32-2.47-.8-.6-1.79-.9-2.98-.9-.86,0-1.63.2-2.3.59-.68.4-1.21.96-1.59,1.69-.38.73-.58,1.58-.58,2.53s.19,1.81.58,2.54c.39.73.94,1.29,1.64,1.69.7.4,1.51.59,2.42.59,1.38,0,2.42-.36,3.14-1.08.72-.72,1.07-1.79,1.07-3.2l.27.58-4.71.26.17-1.55h5.98v.43c0,2.16-.57,3.7-1.7,4.63-1.13.93-2.55,1.39-4.23,1.39Z"/>
          <path class="cls-3" d="M111.94,109.52l.09-2.58v-7.05l-.09-2.41h1.89l-.09,2.41v8.36l4.69-.49-.17,1.76h-6.33Z"/>
          <path class="cls-3" d="M121.13,113.94l.09-2.58v-11.47l-.09-2.41h1.89l-.09,2.41v11.47l.09,2.58h-1.89Z"/>
          <path class="cls-3" d="M125.56,109.52l5.52-12.04h1.48l5.52,12.04h-2.06l-.76-2.15-3.68-8.55h.52l-3.77,8.55-.76,2.15h-2.01ZM128.59,105.47l.69-1.38h5.09l.69,1.38h-6.47Z"/>
          <path class="cls-3" d="M140.59,109.52l.09-2.58v-7.05l-.09-2.41h1.6l8.89,10.37h-.72v-7.96l-.09-2.41h1.81l-.09,2.41v7.05l.09,2.58h-1.6l-8.89-10.37h.72v7.79l.09,2.58h-1.81Z"/>
        </g>
      </g>
      <g>
        <text class="cls-2" transform="translate(103.35 16.5)"><tspan x="0" y="0">S</tspan></text>
        <text class="cls-1" transform="translate(119.42 31.14)"><tspan x="0" y="0">D</tspan></text>
        <path class="cls-4" d="M133.63,17.84c-3.7-11.59.77-9.82.77-9.82l-2.09-7.21h-31.98l-2.09,7.21s4.47-1.77.77,9.82c-3.7,11.59.13,14.95,3.61,16.3,3.38,1.31,10.53-.68,13.68,4.19,0,0,0,.02,0,.01,0,0,0-.01,0-.01,3.15-4.88,10.3-2.88,13.68-4.19,3.48-1.35,7.31-4.72,3.61-16.3Z"/>
        <line class="cls-4" x1="116.33" y1=".37" x2="116.33" y2="37.34"/>
        <line class="cls-4" x1="97.94" y1="26.28" x2="133.05" y2="8.17"/>
      </g>
    </g>
  </g>
</svg>