<svg xmlns="http://www.w3.org/2000/svg" width="38.268" height="34.631" viewBox="0 0 38.268 34.631"><g id="Layer_42" data-name="Layer 42" transform="translate(-1.949 -4.609)"><path id="Path_3737" data-name="Path 3737" d="M33.616,14.7a.637.637,0,0,1-.552-.318l-.318-.552a.637.637,0,1,1,1.1-.637l.318.552a.637.637,0,0,1-.551.955Z" transform="translate(-11.157 -3.003)" fill="#7e7773"></path><path id="Path_3738" data-name="Path 3738" d="M29.111,25.35,26.191,25.3a3.084,3.084,0,0,0-1.583.4l-4.382-2.921a1.9,1.9,0,0,0-2.015-.064l-.969.56a.637.637,0,0,0-.16.971l3.566,4.062-1.726,1.146-1.187-.805a1.925,1.925,0,0,0-2.028-.074l-.411.238a.637.637,0,0,0-.233.87l1.044,1.808-1.033,1.161a.637.637,0,0,0-.076.741l.637,1.1a.637.637,0,0,0,.552.318.669.669,0,0,0,.127-.013l1.523-.312L18.88,36.3a.637.637,0,0,0,.87.233l.411-.237a1.923,1.923,0,0,0,.95-1.793l-.1-1.431,1.857-.922L24.6,37.265a.637.637,0,0,0,.921.347l.969-.56a1.9,1.9,0,0,0,.951-1.777L27.1,30.02a3.157,3.157,0,0,0,1.137-1.168L29.657,26.3a.637.637,0,0,0-.546-.948ZM18.551,23.991l.3-.172a.637.637,0,0,1,.672.022l3.92,2.611L21.715,27.6ZM17.017,29.7l.756.513-.676.446-.606-1.045A.637.637,0,0,1,17.017,29.7Zm-.688,3.452.446-.5.39.676-.658.135Zm3.511,1.44a.641.641,0,0,1-.187.5l-.606-1.049.726-.361Zm6.011,1.355-.3.172-1.545-4.545,1.854-.921.3,4.7a.632.632,0,0,1-.315.592Zm1.273-7.718a1.9,1.9,0,0,1-.819.784l-7.9,3.923-.675-1.169,7.346-4.877a1.85,1.85,0,0,1,1.089-.318l1.859.031Z" transform="translate(-4.709 -6.484)" fill="#7e7773"></path><path id="Path_3739" data-name="Path 3739" d="M39.79,19.433,37.243,15.02a.63.63,0,0,0-.382-.293.641.641,0,0,0-.484.064,1.911,1.911,0,1,1-1.91-3.311.626.626,0,0,0,.293-.388.6.6,0,0,0-.064-.478L32.149,6.2A3.184,3.184,0,0,0,27.8,5.036L3.542,19.044a3.184,3.184,0,0,0-1.165,4.349l2.547,4.412a.63.63,0,0,0,.382.293.641.641,0,0,0,.484-.064,2.1,2.1,0,0,1,.548-.2,1.827,1.827,0,0,1,.1.586,1.916,1.916,0,0,1-1.91,1.91.637.637,0,0,0-.637.637v5.094a3.184,3.184,0,0,0,3.184,3.184H35.091a3.184,3.184,0,0,0,3.184-3.184V30.963a.637.637,0,0,0-.637-.637,1.91,1.91,0,0,1,0-3.82.637.637,0,0,0,.637-.637V23.985l.35-.2a3.184,3.184,0,0,0,1.165-4.349ZM7.075,37.967a1.916,1.916,0,0,1-1.91-1.91V31.537a3.189,3.189,0,0,0,2.547-3.12c0-.127-.013-.255-.025-.382a1.882,1.882,0,0,1,.713.7,1.91,1.91,0,0,1-.7,2.611.626.626,0,0,0-.293.388.6.6,0,0,0,.064.478l2.547,4.412a3.166,3.166,0,0,0,1.554,1.343ZM37,25.3a3.184,3.184,0,0,0,0,6.24v4.521a1.916,1.916,0,0,1-1.91,1.91h-7v-.637a.637.637,0,0,0-1.273,0v.637h-12.8a3.1,3.1,0,0,0,.357-.178l12.5-7.214a.637.637,0,0,0,1.222-.248v-.458L37,24.724Zm.987-2.617-6.062,3.5-.318-.554a.639.639,0,1,0-1.108.637l.318.554L13.729,36.688a1.91,1.91,0,0,1-2.611-.7l-2.26-3.916a3.091,3.091,0,0,0,.961-1.56,3.178,3.178,0,0,0-4.081-3.839l-2.26-3.916a1.91,1.91,0,0,1,.7-2.611L28.437,6.138a1.91,1.91,0,0,1,2.611.7l2.26,3.916a3.091,3.091,0,0,0-.961,1.56,3.178,3.178,0,0,0,4.081,3.839l2.26,3.916a1.91,1.91,0,0,1-.7,2.611Z" transform="translate(0)" fill="#7e7773"></path><path id="Path_3740" data-name="Path 3740" d="M35.064,17.846a.637.637,0,0,0,.552.318.626.626,0,0,0,.318-.086.637.637,0,0,0,.233-.869l-.318-.551a.637.637,0,1,0-1.1.637Z" transform="translate(-11.884 -4.261)" fill="#7e7773"></path><path id="Path_3741" data-name="Path 3741" d="M38.166,20.674l-.318-.551a.637.637,0,1,0-1.1.637l.318.551a.637.637,0,1,0,1.1-.637Z" transform="translate(-12.61 -5.52)" fill="#7e7773"></path><path id="Path_3742" data-name="Path 3742" d="M40.166,24.138l-.318-.551a.637.637,0,1,0-1.1.637l.318.551a.637.637,0,1,0,1.1-.637Z" transform="translate(-13.336 -6.778)" fill="#7e7773"></path><path id="Path_3743" data-name="Path 3743" d="M42.166,27.6l-.318-.551a.637.637,0,1,0-1.1.637l.318.551a.637.637,0,1,0,1.1-.637Z" transform="translate(-14.063 -8.037)" fill="#7e7773"></path><path id="Path_3744" data-name="Path 3744" d="M44.166,31.066l-.318-.551a.637.637,0,1,0-1.1.637l.318.551a.637.637,0,1,0,1.1-.637Z" transform="translate(-14.789 -9.295)" fill="#7e7773"></path><path id="Path_3745" data-name="Path 3745" d="M45.848,33.978a.637.637,0,1,0-1.1.637l.318.551a.637.637,0,1,0,1.1-.637Z" transform="translate(-15.516 -10.554)" fill="#7e7773"></path><path id="Path_3746" data-name="Path 3746" d="M38.483,14.315a.637.637,0,0,0,.87.233L43.764,12a.637.637,0,0,0,.233-.87L42.724,8.926a.637.637,0,0,0-.87-.233L37.443,11.24a.637.637,0,0,0-.234.87Zm3.457-4.2.637,1.1-3.311,1.91-.637-1.1Z" transform="translate(-12.778 -1.453)" fill="#7e7773"></path><path id="Path_3747" data-name="Path 3747" d="M52.724,26.246a.637.637,0,0,0-.87-.233L47.443,28.56a.637.637,0,1,0,.637,1.1l4.411-2.547A.637.637,0,0,0,52.724,26.246Z" transform="translate(-16.411 -7.745)" fill="#7e7773"></path><path id="Path_3748" data-name="Path 3748" d="M53.854,29.477l-4.411,2.547a.637.637,0,1,0,.637,1.1l4.411-2.547a.637.637,0,1,0-.637-1.1Z" transform="translate(-17.138 -9.003)" fill="#7e7773"></path><path id="Path_3749" data-name="Path 3749" d="M41.637,47a.637.637,0,0,0-.637.637v.637a.637.637,0,1,0,1.273,0v-.637A.637.637,0,0,0,41.637,47Z" transform="translate(-14.186 -15.4)" fill="#7e7773"></path><path id="Path_3750" data-name="Path 3750" d="M41.637,51a.637.637,0,0,0-.637.637v.637a.637.637,0,1,0,1.273,0v-.637A.637.637,0,0,0,41.637,51Z" transform="translate(-14.186 -16.853)" fill="#7e7773"></path><path id="Path_3751" data-name="Path 3751" d="M51.094,53H46.637a.637.637,0,0,0,0,1.273h4.457a.637.637,0,0,0,0-1.273Z" transform="translate(-16.003 -17.579)" fill="#7e7773"></path><path id="Path_3752" data-name="Path 3752" d="M46.637,50.273h4.457a.637.637,0,0,0,0-1.273H46.637a.637.637,0,0,0,0,1.273Z" transform="translate(-16.003 -16.126)" fill="#7e7773"></path></g></svg>