<svg id="yachting" xmlns="http://www.w3.org/2000/svg" width="51.092" height="44.739" viewBox="0 0 51.092 44.739">
  <g id="Group_11603" data-name="Group 11603" transform="translate(12.695 8.028)">
    <path id="Path_3672" data-name="Path 3672" d="M103.905,49.545H93.349a.605.605,0,1,1,0-1.21h10.556a.605.605,0,0,1,0,1.21Z" transform="translate(-88.436 -48.335)" fill="#b6afa2"/>
    <path id="Path_3673" data-name="Path 3673" d="M97.16,73.881H84.45a.605.605,0,0,1,0-1.21H97.16a.605.605,0,0,1,0,1.21Z" transform="translate(-81.691 -66.78)" fill="#b6afa2"/>
    <path id="Path_3674" data-name="Path 3674" d="M90.415,98.218H75.551a.605.605,0,0,1,0-1.21H90.415a.605.605,0,0,1,0,1.21Z" transform="translate(-74.946 -85.227)" fill="#b6afa2"/>
  </g>
  <path id="Path_3675" data-name="Path 3675" d="M70.653,49.529H65.931a.605.605,0,0,1-.568-.813l8.106-22.169a.605.605,0,0,1,.452-.386l9.086-1.782a.605.605,0,1,1,.233,1.188l-8.752,1.716L66.8,48.319h3.856a.605.605,0,0,1,0,1.21Z" transform="translate(-54.96 -22.141)" fill="#b6afa2"/>
  <path id="Path_3676" data-name="Path 3676" d="M72.968,183.588a4.815,4.815,0,0,0-3.518,1.533,3.615,3.615,0,0,1-5.431,0,4.8,4.8,0,0,0-7.036,0,3.614,3.614,0,0,1-5.43,0,4.8,4.8,0,0,0-7.035,0,3.613,3.613,0,0,1-5.43,0,4.8,4.8,0,0,0-7.035,0,3.612,3.612,0,0,1-5.429,0,4.814,4.814,0,0,0-3.518-1.534.605.605,0,0,0,0,1.21,3.658,3.658,0,0,1,2.714,1.229,4.8,4.8,0,0,0,7.035,0,3.613,3.613,0,0,1,5.429,0,4.8,4.8,0,0,0,7.035,0,3.614,3.614,0,0,1,5.43,0,4.8,4.8,0,0,0,7.035,0,3.614,3.614,0,0,1,5.431,0,4.8,4.8,0,0,0,7.037,0,3.662,3.662,0,0,1,2.716-1.229.605.605,0,1,0,0-1.21Z" transform="translate(-22.5 -142.821)" fill="#b6afa2"/>
  <path id="Path_3677" data-name="Path 3677" d="M27.9,54.882a.605.605,0,1,0,1.127-.441l-1.555-3.975H74.519A10.949,10.949,0,0,1,68.889,53.9a.605.605,0,1,0,.345,1.16c5.509-1.636,6.894-4.835,6.951-4.971a.605.605,0,0,0-.559-.837h-43.6l1.851-2.632H69.521l4.426,2.3a.605.605,0,1,0,.559-1.074l-4.558-2.372a.6.6,0,0,0-.279-.069H62.828l-4.2-3.906a.605.605,0,0,0-.411-.162H53.908V15.772a.605.605,0,1,0-1.21,0V41.345H45.018a.605.605,0,0,0-.523.3l-2.189,3.767H40.071l.667-1.218a.605.605,0,1,0-1.062-.581l-.986,1.8H33.566a.605.605,0,0,0-.495.257l-2.521,3.585H26.586a.605.605,0,0,0-.563.826Zm22.075-9.469a27.9,27.9,0,0,1,8.057-2.808l3.018,2.808Zm-4.611-2.858h8.145a23.425,23.425,0,0,0-5.752,2.8.616.616,0,0,0-.063.053h-3.99Z" transform="translate(-25.138 -15.167)" fill="#7e7773"/>
</svg>
